<?xml version="1.0" encoding="utf-8"?>
<!-- Generator: Adobe Illustrator 16.0.0, SVG Export Plug-In . SVG Version: 6.00 Build 0)  -->
<!DOCTYPE svg PUBLIC "-//W3C//DTD SVG 1.1//EN" "http://www.w3.org/Graphics/SVG/1.1/DTD/svg11.dtd">
<svg version="1.1" id="Layer_1" xmlns="http://www.w3.org/2000/svg" xmlns:xlink="http://www.w3.org/1999/xlink" x="0px" y="0px"
	 width="500px" height="500px" viewBox="0 0 500 500" enable-background="new 0 0 500 500" xml:space="preserve">
<g>
</g>
<path fill="#222222" d="M477.616,306.065c-0.7-1.11-1.761-1.49-3.011-1.47c-0.27,0-0.55,0.04-0.829,0.06
	c-5.471,0.33-10.94,0.78-16.421,0.95c-11.81,0.38-23.59-0.14-35.31-1.82c-6.59-0.95-13.1-2.27-19.51-4.09
	c-9.18-2.62-17.96-6.18-26.17-11.09c-10.32-6.17-19.1-14.01-25.92-23.96c-4.27-6.23-7.57-12.92-9.59-20.21
	c-0.35-1.24-0.57-2.51-0.89-3.76c-0.39-1.49-1.61-2.48-3.14-2.61c-1.38-0.12-2.75,0.68-3.39,2.01c-0.21,0.46-0.36,0.94-0.53,1.42
	c-1.69,4.86-3.55,9.65-5.7,14.33c-3.08,6.72-6.64,13.18-11.11,19.1c-3.82,5.09-8.2,9.61-13.48,13.21c-8.61,5.88-18.11,8-28.4,6.75
	c-4.91-0.6-9.64-1.93-14.22-3.77c-9.6-3.85-18.17-9.37-25.94-16.15c-0.42-0.37-0.82-0.78-1.28-1.09c-1.97-1.35-4.57-0.45-5.29,1.83
	c-0.12,0.37-0.2,0.75-0.27,1.14c-0.24,1.37-0.46,2.76-0.73,4.13c-1.4,7.2-3.3,14.26-6.01,21.09c-2.82,7.12-6.46,13.77-11.34,19.69
	c-4.17,5.06-9.04,9.29-14.65,12.67c-0.36,0.22-0.69,0.61-1.28,0.38c0-0.36-0.02-0.75,0-1.13c0.17-2.85,0.66-5.66,1.25-8.45
	c1.39-6.59,3.51-12.95,6.06-19.16c4.88-11.89,11.02-23.11,18.07-33.83c0.28-0.42,0.59-0.83,0.81-1.28c0.97-1.89,0.16-4.07-1.81-4.86
	c-0.41-0.16-0.85-0.25-1.29-0.36c-6.03-1.51-11.93-3.39-17.57-6.03c-5.56-2.61-10.72-5.82-15.16-10.08
	c-5.9-5.66-9.76-12.46-11.5-20.46c-1.38-6.37-1.33-12.77-0.48-19.19c0.62-4.6,1.7-9.11,3.09-13.55
	c3.34-10.69,8.15-20.68,14.14-30.13c0.3-0.47,0.64-0.93,0.88-1.43c1.06-2.22-0.31-4.71-2.76-5c-0.38-0.05-0.77,0.02-1.16,0.06
	c-2.72,0.29-5.44,0.63-8.17,0.86c-6.79,0.56-13.53,0-20.2-1.23c-8.75-1.62-17.05-4.57-25-8.53c-9.42-4.68-18.02-10.58-26.07-17.32
	c-9.77-8.18-18.5-17.38-26.47-27.31c-5.96-7.43-11.49-15.16-16.33-23.36c-0.73-1.25-1.58-2.28-2.88-2.91c-0.56,0-1.12,0-1.68,0
	c-0.23,0.15-0.45,0.31-0.69,0.45c-1.66,1.01-2.24,2.37-1.75,4.26c0.61,2.38,1.27,4.75,1.88,7.13c2.14,8.35,3.8,16.78,4.99,25.32
	c1.48,10.55,2.05,21.14,1.58,31.78c-0.74,16.41-4.05,32.24-11.02,47.2c-4.5,9.66-10.29,18.44-17.63,26.18
	c-3.67,3.86-7.6,7.42-12.08,10.34c-0.63,0.4-1.12,0.9-1.5,1.55c-0.18,0.33-0.47,0.6-0.71,0.89c0,0.45,0,0.9,0,1.35
	c0.37,0.18,0.56,0.5,0.74,0.86c0.58,1.12,1.5,1.77,2.78,1.91c0.39,0.04,0.77,0.12,1.16,0.17c2.55,0.35,5.1,0.66,7.64,1.06
	c6.59,1.01,13.05,2.56,19.35,4.76c6.58,2.31,12.81,5.31,18.46,9.44c6.81,4.98,12.14,11.21,15.68,18.9
	c3.68,7.99,4.99,16.45,4.89,25.16c-0.05,4.19-0.46,8.37-1.16,12.51c-1.28,7.53-3.31,14.84-6.23,21.9c-0.15,0.36-0.35,0.7-0.45,1.08
	c-0.86,3.04,1.47,4.93,3.63,4.66c0.38-0.05,0.77-0.09,1.16-0.16c3.8-0.71,7.62-1.22,11.48-1.46c5.98-0.36,11.95-0.29,17.91,0.53
	c6.97,0.97,13.68,2.81,20.1,5.69c1.07,0.49,2.12,1.01,3.18,1.51c0.49,0.23,0.83,0.56,0.9,1.12c0.03,0.22,0.13,0.43,0.2,0.64
	c2.43,7.46,7.34,12.53,14.67,15.28c0.45,0.17,0.91,0.33,1.47,0.53c-0.43,0.64-1.04,0.83-1.54,1.14
	c-7.8,4.91-12.34,14.18-10.68,23.84c2.39,13.97,15.7,21.86,28.15,19.18c12.41-2.67,19.84-14.27,18.54-25.52
	c-0.03-0.24-0.18-0.55,0.29-0.77c6.17,3.51,12.76,4.27,19.61,2.11c0.58,0.39,1.09,0.73,1.6,1.07c3.22,2.24,6.31,4.65,9.3,7.17
	c9.6,8.1,18.37,17.04,26.61,26.51c0.85,0.98,1.72,1.88,2.88,2.48c0.56,0,1.12,0,1.68,0c0.17-0.12,0.33-0.27,0.53-0.36
	c0.84-0.4,1.42-1.04,1.85-1.87c0.85-1.63,1.71-3.27,2.62-4.87c3-5.27,6.49-10.19,10.73-14.54c5.35-5.5,11.54-9.71,18.9-12.06
	c5.49-1.76,11.12-2.38,16.88-2.02c8.37,0.51,16.27,2.8,23.94,6.04c8.49,3.59,16.36,8.26,23.85,13.6c3.92,2.8,7.71,5.76,11.28,8.99
	c0.73,0.66,1.52,1.12,2.53,1.15c1.69,0.04,3.05-0.92,3.51-2.56c0.11-0.42,0.16-0.88,0.17-1.32c0.69-19.39,7.53-36.39,19.88-51.25
	c6.561-7.88,14.19-14.58,22.55-20.47c10.011-7.05,20.761-12.75,32.03-17.48c8.52-3.57,17.22-6.59,26.18-8.87
	c0.431-0.11,0.86-0.24,1.301-0.3c1.34-0.2,2.39-0.83,3.18-1.93c0-1.12,0-2.23,0-3.35
	C477.836,306.285,477.706,306.195,477.616,306.065z M147.666,339.695c0.09-9.91,8-18.25,18.56-18.11
	c10.56,0.15,18.14,8.73,18.07,18.44c-0.08,10.15-8.36,18.3-18.48,18.19C156.346,358.195,147.566,350.545,147.666,339.695z
	 M182.916,361.725c-1.6-0.37-2.92-1.02-4.38-1.7c1.58-1.28,2.99-2.42,4.39-3.56c0.06,0.01,0.13,0,0.16,0.03
	c0.04,0.03,0.06,0.1,0.06,0.16c0,0.22-0.01,0.44-0.03,0.66c-0.06,0.71-0.16,1.43-0.19,2.14
	C182.886,360.175,182.916,360.885,182.916,361.725z M170.856,402.095c-9.59,0.11-18.4-7.46-18.54-18.15
	c-0.12-10.08,8.04-18.33,18.01-18.5c9.6-0.17,18.54,7.51,18.62,18.23C189.016,393.725,180.866,401.985,170.856,402.095z
	 M206.236,378.595c-10-0.1-18.14-8.4-18.06-18.46c0.06-10.16,8.49-18.36,18.66-18.19c9.38,0.16,18.07,7.81,17.97,18.54
	C224.716,370.615,216.386,378.695,206.236,378.595z"/>
<path fill-rule="evenodd" clip-rule="evenodd" fill="#FFFFFF" d="M155.978,318.479c-0.062-0.357-0.096-0.629-0.157-0.895
	c-1.575-6.814-3.544-13.518-5.718-20.163c-4.575-13.987-9.967-27.664-15.763-41.184c-10.03-23.398-21.084-46.308-32.94-68.833
	c-0.26-0.495-0.557-0.977-0.758-1.495c-0.514-1.326-0.024-2.695,1.146-3.327c1.258-0.679,2.67-0.3,3.497,0.981
	c0.362,0.562,0.657,1.169,0.969,1.763c9.421,17.923,18.322,36.101,26.644,54.561c6.573,14.583,12.777,29.318,18.221,44.365
	c3.75,10.362,7.156,20.831,9.682,31.57c0.073,0.311,0.22,0.604,0.335,0.912"/>
<path fill-rule="evenodd" clip-rule="evenodd" fill="#FFFFFF" d="M228.036,350.415c0.528,0.043,1.025,0.104,1.524,0.121
	c0.727,0.024,1.455,0.034,2.182,0.021c7.216-0.132,14.425-0.415,21.61-1.14c4.729-0.478,9.465-0.903,14.182-1.488
	c5.27-0.653,10.53-1.401,15.778-2.216c6.407-0.994,12.815-2.003,19.191-3.18c8.299-1.532,16.577-3.183,24.846-4.876
	c13.966-2.86,27.847-6.096,41.661-9.619c0.488-0.124,0.977-0.269,1.475-0.318c1.209-0.12,2.385,0.695,2.699,1.82
	c0.34,1.215-0.127,2.442-1.197,3.035c-0.336,0.186-0.725,0.292-1.1,0.39c-1.895,0.491-3.789,0.976-5.688,1.448
	c-12.042,3-24.131,5.794-36.289,8.287c-7.665,1.572-15.339,3.11-23.029,4.56c-5.492,1.036-11.013,1.923-16.528,2.83
	c-4.026,0.663-8.061,1.287-12.101,1.863c-3.652,0.521-7.314,0.991-10.98,1.417c-3.665,0.425-7.337,0.811-11.013,1.137
	c-3.955,0.351-7.914,0.688-11.878,0.891c-4.188,0.215-8.385,0.263-12.578,0.394c-0.315,0.01-0.629,0.105-1.043,0.179"/>
</svg>
