<?xml version="1.0" encoding="utf-8"?>
<!-- Generator: Adobe Illustrator 18.0.0, SVG Export Plug-In . SVG Version: 6.00 Build 0)  -->
<!DOCTYPE svg PUBLIC "-//W3C//DTD SVG 1.1//EN" "http://www.w3.org/Graphics/SVG/1.1/DTD/svg11.dtd">
<svg version="1.1" id="Layer_1" xmlns="http://www.w3.org/2000/svg" xmlns:xlink="http://www.w3.org/1999/xlink" x="0px" y="0px"
	 viewBox="0 0 69.3 99.7" enable-background="new 0 0 69.3 99.7" xml:space="preserve">
<path fill="#FFFFFF" d="M67.4,60c-0.4,0.2-9.7,5.2-19.5,15C43,80,39.2,84.9,36.6,88.6V0h-4v88.6c-2.5-3.7-6.3-8.6-11.3-13.5
	C11.6,65.2,2.3,60.2,1.9,60L0,63.6c0.1,0,9.2,4.9,18.6,14.3c9.1,9.1,14.3,18.5,14.3,18.6l1.8,3.2l1.8-3.2c0.1-0.1,5.2-9.5,14.3-18.6
	c9.4-9.4,18.5-14.3,18.6-14.3L67.4,60z"/>
</svg>
